<?xml version="1.0" encoding="UTF-8" standalone="no"?>
<svg
   xmlns:dc="http://purl.org/dc/elements/1.1/"
   xmlns:cc="http://creativecommons.org/ns#"
   xmlns:rdf="http://www.w3.org/1999/02/22-rdf-syntax-ns#"
   xmlns:svg="http://www.w3.org/2000/svg"
   xmlns="http://www.w3.org/2000/svg"
   xmlns:sodipodi="http://sodipodi.sourceforge.net/DTD/sodipodi-0.dtd"
   xmlns:inkscape="http://www.inkscape.org/namespaces/inkscape"
   viewBox="0 0 64 64"
   id="svg2"
   version="1.1"
   inkscape:version="0.91 r13725"
   sodipodi:docname="python.svg"
   width="64"
   height="64">
  <metadata
     id="metadata29">
    <rdf:RDF>
      <cc:Work
         rdf:about="">
        <dc:format>image/svg+xml</dc:format>
        <dc:type
           rdf:resource="http://purl.org/dc/dcmitype/StillImage" />
        <dc:title></dc:title>
      </cc:Work>
    </rdf:RDF>
  </metadata>
  <defs
     id="defs27" />
  <sodipodi:namedview
     pagecolor="#ffffff"
     bordercolor="#666666"
     borderopacity="1"
     objecttolerance="10"
     gridtolerance="10"
     guidetolerance="10"
     inkscape:pageopacity="0"
     inkscape:pageshadow="2"
     inkscape:window-width="1360"
     inkscape:window-height="710"
     id="namedview25"
     showgrid="false"
     inkscape:zoom="1.84375"
     inkscape:cx="64"
     inkscape:cy="64"
     inkscape:window-x="0"
     inkscape:window-y="30"
     inkscape:window-maximized="1"
     inkscape:current-layer="svg2" />
  <linearGradient
     id="a"
     gradientUnits="userSpaceOnUse"
     x1="70.251999"
     y1="1237.476"
     x2="170.659"
     y2="1151.089"
     gradientTransform="matrix(0.563,0,0,-0.568,-29.215,707.817)">
    <stop
       offset="0"
       stop-color="#5A9FD4"
       id="stop5" />
    <stop
       offset="1"
       stop-color="#306998"
       id="stop7" />
  </linearGradient>
  <linearGradient
     id="b"
     gradientUnits="userSpaceOnUse"
     x1="209.474"
     y1="1098.811"
     x2="173.62"
     y2="1149.537"
     gradientTransform="matrix(0.563,0,0,-0.568,-29.215,707.817)">
    <stop
       offset="0"
       stop-color="#FFD43B"
       id="stop12" />
    <stop
       offset="1"
       stop-color="#FFE873"
       id="stop14" />
  </linearGradient>
  <g
     id="g4157"
     transform="matrix(0.62513549,0,0,0.61831703,-8.0094223,-1.2287222)">
    <path
       id="path9"
       d="m 63.391,1.988 c -4.222,0.02 -8.252,0.379 -11.8,1.007 -10.45,1.846 -12.346,5.71 -12.346,12.837 l 0,9.411 24.693,0 0,3.137 -33.961,0 c -7.176,0 -13.46,4.313 -15.426,12.521 -2.268,9.405 -2.368,15.275 0,25.096 1.755,7.311 5.947,12.519 13.124,12.519 l 8.491,0 0,-11.282 c 0,-8.151 7.051,-15.34 15.426,-15.34 l 24.665,0 c 6.866,0 12.346,-5.654 12.346,-12.548 l 0,-23.513 C 88.603,9.14 82.957,4.113 76.257,2.996 72.013,2.29 67.612,1.969 63.391,1.988 Z M 50.037,9.557 c 2.55,0 4.634,2.117 4.634,4.721 0,2.593 -2.083,4.69 -4.634,4.69 -2.56,0 -4.633,-2.097 -4.633,-4.69 -0.001,-2.604 2.073,-4.721 4.633,-4.721 z"
       style="fill:url(#a)"
       inkscape:connector-curvature="0" />
    <path
       id="path16"
       d="m 91.682,28.38 0,10.966 c 0,8.5 -7.208,15.655 -15.426,15.655 l -24.665,0 c -6.756,0 -12.346,5.783 -12.346,12.549 l 0,23.515 c 0,6.691 5.818,10.628 12.346,12.547 7.816,2.297 15.312,2.713 24.665,0 6.216,-1.801 12.346,-5.423 12.346,-12.547 l 0,-9.412 -24.664,0 0,-3.138 37.012,0 c 7.176,0 9.852,-5.005 12.348,-12.519 2.578,-7.735 2.467,-15.174 0,-25.096 -1.774,-7.145 -5.161,-12.521 -12.348,-12.521 l -9.268,0 z M 77.809,87.927 c 2.561,0 4.634,2.097 4.634,4.692 0,2.602 -2.074,4.719 -4.634,4.719 -2.55,0 -4.633,-2.117 -4.633,-4.719 0,-2.595 2.083,-4.692 4.633,-4.692 z"
       style="fill:url(#b)"
       inkscape:connector-curvature="0" />
  </g>
  <radialGradient
     id="c"
     cx="1825.678"
     cy="444.45001"
     r="26.743"
     gradientTransform="matrix(0,-0.24,-1.055,0,532.979,557.576)"
     gradientUnits="userSpaceOnUse">
    <stop
       offset="0"
       stop-color="#B8B8B8"
       stop-opacity=".498"
       id="stop19" />
    <stop
       offset="1"
       stop-color="#7F7F7F"
       stop-opacity="0"
       id="stop21" />
  </radialGradient>
</svg>
